# xmcd CD database file
#
# Track frame offsets:
#	150
#	16522
#	34697
#	53780
#	77412
#	99280
#	116362
#	134527
#	152640
#	171957
#	190085
#	207857
#	225842
#
# Disc length: 3253 seconds
#
# Revision: 2
# Processed by: cddbd v1.4PL0 Copyright (c) Steve Scherf et al.
# Submitted via: CDex 1.50Beta3
#
DISCID=8d0cb30d
DTITLE=Jody Watley - Flower
DYEAR=1900
DGENRE=R&B
TTITLE0=Lovin' You So Far
TTITLE1=Flower
TTITLE2=Off The Hook
TTITLE3=Everything You Do
TTITLE4=Just One More Time
TTITLE5=If I'm Not In Love
TTITLE6=A Lifetime
TTITLE7=No More Tears To Cry
TTITLE8=You'll Never Find A Love
TTITLE9=I Don't Want You Back
TTITLE10=Baby Tonight
TTITLE11=16
TTITLE12=Off The Hook (D-Dot Remix Featuring Rakim)
EXTD=
EXTT0=
EXTT1=
EXTT2=
EXTT3=
EXTT4=
EXTT5=
EXTT6=
EXTT7=
EXTT8=
EXTT9=
EXTT10=
EXTT11=
EXTT12=
PLAYORDER=
